<!-- <svg xmlns="http://www.w3.org/2000/svg" viewBox="0 0 841.9 595.3">
    <g fill="#61DAFB">
        <path d="M666.3 296.5c0-32.5-40.7-63.3-103.1-82.4 14.4-63.6 8-114.2-20.2-130.4-6.5-3.8-14.1-5.6-22.4-5.6v22.3c4.6 0 8.3.9 11.4 2.6 13.6 7.8 19.5 37.5 14.9 75.7-1.1 9.4-2.9 19.3-5.1 29.4-19.6-4.8-41-8.5-63.5-10.9-13.5-18.5-27.5-35.3-41.6-50 32.6-30.3 63.2-46.9 84-46.9V78c-27.5 0-63.5 19.6-99.9 53.6-36.4-33.8-72.4-53.2-99.9-53.2v22.3c20.7 0 51.4 16.5 84 46.6-14 14.7-28 31.4-41.3 49.9-22.6 2.4-44 6.1-63.6 11-2.3-10-4-19.7-5.2-29-4.7-38.2 1.1-67.9 14.6-75.8 3-1.8 6.9-2.6 11.5-2.6V78.5c-8.4 0-16 1.8-22.6 5.6-28.1 16.2-34.4 66.7-19.9 130.1-62.2 19.2-102.7 49.9-102.7 82.3 0 32.5 40.7 63.3 103.1 82.4-14.4 63.6-8 114.2 20.2 130.4 6.5 3.8 14.1 5.6 22.5 5.6 27.5 0 63.5-19.6 99.9-53.6 36.4 33.8 72.4 53.2 99.9 53.2 8.4 0 16-1.8 22.6-5.6 28.1-16.2 34.4-66.7 19.9-130.1 62-19.1 102.5-49.9 102.5-82.3zm-130.2-66.7c-3.7 12.9-8.3 26.2-13.5 39.5-4.1-8-8.4-16-13.1-24-4.6-8-9.5-15.8-14.4-23.4 14.2 2.1 27.9 4.7 41 7.9zm-45.8 106.5c-7.8 13.5-15.8 26.3-24.1 38.2-14.9 1.3-30 2-45.2 2-15.1 0-30.2-.7-45-1.9-8.3-11.9-16.4-24.6-24.2-38-7.6-13.1-14.5-26.4-20.8-39.8 6.2-13.4 13.2-26.8 20.7-39.9 7.8-13.5 15.8-26.3 24.1-38.2 14.9-1.3 30-2 45.2-2 15.1 0 30.2.7 45 1.9 8.3 11.9 16.4 24.6 24.2 38 7.6 13.1 14.5 26.4 20.8 39.8-6.3 13.4-13.2 26.8-20.7 39.9zm32.3-13c5.4 13.4 10 26.8 13.8 39.8-13.1 3.2-26.9 5.9-41.2 8 4.9-7.7 9.8-15.6 14.4-23.7 4.6-8 8.9-16.1 13-24.1zM421.2 430c-9.3-9.6-18.6-20.3-27.8-32 9 .4 18.2.7 27.5.7 9.4 0 18.7-.2 27.8-.7-9 11.7-18.3 22.4-27.5 32zm-74.4-58.9c-14.2-2.1-27.9-4.7-41-7.9 3.7-12.9 8.3-26.2 13.5-39.5 4.1 8 8.4 16 13.1 24 4.7 8 9.5 15.8 14.4 23.4zM420.7 163c9.3 9.6 18.6 20.3 27.8 32-9-.4-18.2-.7-27.5-.7-9.4 0-18.7.2-27.8.7 9-11.7 18.3-22.4 27.5-32zm-74 58.9c-4.9 7.7-9.8 15.6-14.4 23.7-4.6 8-8.9 16-13 24-5.4-13.4-10-26.8-13.8-39.8 13.1-3.1 26.9-5.8 41.2-7.9zm-90.5 125.2c-35.4-15.1-58.3-34.9-58.3-50.6 0-15.7 22.9-35.6 58.3-50.6 8.6-3.7 18-7 27.7-10.1 5.7 19.6 13.2 40 22.5 60.9-9.2 20.8-16.6 41.1-22.2 60.6-9.9-3.1-19.3-6.5-28-10.2zM310 490c-13.6-7.8-19.5-37.5-14.9-75.7 1.1-9.4 2.9-19.3 5.1-29.4 19.6 4.8 41 8.5 63.5 10.9 13.5 18.5 27.5 35.3 41.6 50-32.6 30.3-63.2 46.9-84 46.9-4.5-.1-8.3-1-11.3-2.7zm237.2-76.2c4.7 38.2-1.1 67.9-14.6 75.8-3 1.8-6.9 2.6-11.5 2.6-20.7 0-51.4-16.5-84-46.6 14-14.7 28-31.4 41.3-49.9 22.6-2.4 44-6.1 63.6-11 2.3 10.1 4.1 19.8 5.2 29.1zm38.5-66.7c-8.6 3.7-18 7-27.7 10.1-5.7-19.6-13.2-40-22.5-60.9 9.2-20.8 16.6-41.1 22.2-60.6 9.9 3.1 19.3 6.5 28.1 10.2 35.4 15.1 58.3 34.9 58.3 50.6-.1 15.7-23 35.6-58.4 50.6zM320.8 78.4z"/>
        <circle cx="420.9" cy="296.5" r="45.7"/>
        <path d="M520.5 78.1z"/>
    </g>
</svg> -->


<svg width="128" height="128" style="enable-background:new 0 0 128 128;" xmlns="http://www.w3.org/2000/svg" xmlns:xlink="http://www.w3.org/1999/xlink">
  <g id="图层_2">
    <g>
      <path d="M118.89,75.13c-1.31-2.72-3.46-5.53-6.97-7.33c-2.37-1.48-4.57-2.24-6.01-2.63 c1.53-5.6-0.64-10.06-3.69-13.39c-4.53-4.88-9.27-5.59-9.27-5.59l-0.01,0c1.56-3.03,2.15-6.54,1.36-9.99 c-1-4.26-3.29-6.94-6.31-8.73c-3.09-1.83-6.91-2.73-10.83-3.43c-1.88-0.34-9.81-1.45-13.1-6c-2.65-3.69-2.73-10.33-3.45-12.32 c-0.77-2.05-3.38-1.15-6.23,0.76c-3.33,2.22-10.23,9.35-12.89,16.49c-2.03,5.47-2.08,10.21-1.28,13.89 c-3.29,0.55-5.76,1.66-6.23,1.88c-0.16,0.05-0.32,0.1-0.49,0.17c-3.01,1.24-9.43,7.02-10.01,15.85c-0.2,3.14,0.21,6.31,1.2,9.26 c-3.94,1.1-6.22,2.54-6.26,2.57c-2,0.75-5.18,2.95-6.15,4.13c-1.97,2.38-3.34,5.21-4.15,8.18C6.35,85.36,7,92.71,10.14,98.67 c1.74,3.31,4.12,6.83,6.74,9.52c8.55,8.79,23.31,12.11,34.96,14.03c14.19,2.34,29.05,1.52,42.33-3.97 c19.92-8.22,25.22-21.44,26-25.17C121.92,84.77,119.8,77,118.89,75.13z" style="fill:#865D53;"/>
      <g>
        <g>
          <ellipse cx="85.95" cy="66.39" rx="16.61" ry="15.5" style="fill:#FFFFFF;" transform="matrix(0.1106 -0.9939 0.9939 0.1106 10.453 144.4706)"/>
          <path d="M92.63,66.36c-0.23,3.3-3.14,5.82-6.49,5.62c-3.36-0.19-5.9-3.04-5.67-6.34 c0.22-3.31,3.12-5.82,6.48-5.62C90.31,60.21,92.86,63.06,92.63,66.36" style="fill:#2F2F2F;"/>
        </g>
        <g>
          <ellipse cx="42.46" cy="66.4" rx="15.5" ry="16.61" style="fill:#FFFFFF;" transform="matrix(0.9972 -0.0752 0.0752 0.9972 -4.8714 3.3796)"/>
          <path d="M49.02,65.13c0.38,3.29-2.01,6.3-5.34,6.72c-3.34,0.43-6.36-1.9-6.74-5.18 c-0.4-3.29,1.99-6.3,5.33-6.73C45.6,59.52,48.63,61.85,49.02,65.13" style="fill:#2F2F2F;"/>
        </g>
      </g>
      <path d="M87.35,89.46c-2.22-1.5-5.02-0.51-7.49,0c-6.9,1.42-12.95,1.48-15.86,1.48 c-2.91,0-8.96-0.06-15.86-1.48c-2.47-0.51-5.27-1.5-7.49,0c-2.82,1.9-0.74,8.74,3.7,13.36c2.68,2.79,9.07,8.21,19.66,8.21 c10.58,0,16.97-5.42,19.66-8.21C88.09,98.2,90.17,91.37,87.35,89.46z" style="fill:#ED6D31;"/>
    </g>
  </g>
</svg>